<svg xmlns="http://www.w3.org/2000/svg" width="21.6" height="21.6" viewBox="0 0 21.6 21.6">
  <path id="Icon_awesome-calendar-alt" data-name="Icon awesome-calendar-alt" d="M0,19.575A2.185,2.185,0,0,0,2.314,21.6H19.286A2.185,2.185,0,0,0,21.6,19.575V8.1H0Zm15.429-8.269a.548.548,0,0,1,.579-.506h1.929a.548.548,0,0,1,.579.506v1.688a.548.548,0,0,1-.579.506H16.007a.548.548,0,0,1-.579-.506Zm0,5.4a.548.548,0,0,1,.579-.506h1.929a.548.548,0,0,1,.579.506v1.687a.548.548,0,0,1-.579.506H16.007a.548.548,0,0,1-.579-.506Zm-6.171-5.4a.548.548,0,0,1,.579-.506h1.929a.548.548,0,0,1,.579.506v1.688a.548.548,0,0,1-.579.506H9.836a.548.548,0,0,1-.579-.506Zm0,5.4a.548.548,0,0,1,.579-.506h1.929a.548.548,0,0,1,.579.506v1.687a.548.548,0,0,1-.579.506H9.836a.548.548,0,0,1-.579-.506Zm-6.171-5.4a.548.548,0,0,1,.579-.506H5.593a.548.548,0,0,1,.579.506v1.688a.548.548,0,0,1-.579.506H3.664a.548.548,0,0,1-.579-.506Zm0,5.4a.548.548,0,0,1,.579-.506H5.593a.548.548,0,0,1,.579.506v1.687a.548.548,0,0,1-.579.506H3.664a.548.548,0,0,1-.579-.506ZM19.286,2.7H16.971V.675A.73.73,0,0,0,16.2,0H14.657a.73.73,0,0,0-.771.675V2.7H7.714V.675A.73.73,0,0,0,6.943,0H5.4a.73.73,0,0,0-.771.675V2.7H2.314A2.185,2.185,0,0,0,0,4.725V6.75H21.6V4.725A2.185,2.185,0,0,0,19.286,2.7Z" fill="#e4c5a1"/>
</svg>
