<svg xmlns="http://www.w3.org/2000/svg" width="38.25" height="36" viewBox="0 0 38.25 36">
  <path id="Icon_awesome-chart-pie" data-name="Icon awesome-chart-pie" d="M37.11,20.25H20.426L31.537,31.361a1.128,1.128,0,0,0,1.56.048,16.84,16.84,0,0,0,5.142-9.9A1.127,1.127,0,0,0,37.11,20.25ZM36,15.694A16.915,16.915,0,0,0,20.306,0a1.131,1.131,0,0,0-1.181,1.139V16.875H34.859A1.131,1.131,0,0,0,36,15.694ZM15.75,20.25V3.566A1.127,1.127,0,0,0,14.5,2.436,16.863,16.863,0,0,0,.01,19.714,17.083,17.083,0,0,0,17.088,36a16.744,16.744,0,0,0,9.51-3.1,1.117,1.117,0,0,0,.11-1.693Z" transform="translate(0 0)" fill="#d5b493"/>
</svg>
