<svg xmlns="http://www.w3.org/2000/svg" width="410" height="309" viewBox="0 0 410 309">
  <g id="Line_chart" data-name="Line chart" transform="translate(-16 -429)">
    <path id="Path_15" data-name="Path 15" d="M0,0H392V306H0Z" transform="translate(33 429)" fill="#242331"/>
    <text id="_2017" data-name="2017" transform="translate(61 735)" fill="#d5b493" font-size="10" font-family="SegoeUI-Semibold, Segoe UI" font-weight="600"><tspan x="-10.244" y="0">2017</tspan></text>
    <text id="_2018" data-name="2018" transform="translate(149 735)" fill="#d5b493" font-size="10" font-family="SegoeUI-Semibold, Segoe UI" font-weight="600"><tspan x="-10.339" y="0">2018</tspan></text>
    <text id="_2019" data-name="2019" transform="translate(238 735)" fill="#d5b493" font-size="10" font-family="SegoeUI-Semibold, Segoe UI" font-weight="600"><tspan x="-10.354" y="0">2019</tspan></text>
    <text id="_2020" data-name="2020" transform="translate(326 735)" fill="#d5b493" font-size="10" font-family="SegoeUI-Semibold, Segoe UI" font-weight="600"><tspan x="-11.104" y="0">2020</tspan></text>
    <text id="_2021" data-name="2021" transform="translate(415 735)" fill="#d5b493" font-size="10" font-family="SegoeUI-Semibold, Segoe UI" font-weight="600"><tspan x="-10.339" y="0">2021</tspan></text>
    <text id="_0" data-name="0" transform="translate(27 710)" fill="#a3a3a3" font-size="10" font-family="Roboto-Regular, Roboto"><tspan x="12.385" y="10">0</tspan></text>
    <text id="_20" data-name="20" transform="translate(21 653)" fill="#a3a3a3" font-size="10" font-family="Roboto-Regular, Roboto"><tspan x="6.77" y="10">20</tspan></text>
    <text id="_40" data-name="40" transform="translate(21 597)" fill="#a3a3a3" font-size="10" font-family="Roboto-Regular, Roboto"><tspan x="6.77" y="10">40</tspan></text>
    <text id="_60" data-name="60" transform="translate(21 541)" fill="#a3a3a3" font-size="10" font-family="Roboto-Regular, Roboto"><tspan x="6.77" y="10">60</tspan></text>
    <text id="_80" data-name="80" transform="translate(21 485)" fill="#a3a3a3" font-size="10" font-family="Roboto-Regular, Roboto"><tspan x="6.77" y="10">80</tspan></text>
    <text id="_100" data-name="100" transform="translate(16 429)" fill="#a3a3a3" font-size="10" font-family="Roboto-Regular, Roboto"><tspan x="1.154" y="10">100</tspan></text>
    <path id="Grid_v_1" d="M61,434V715" fill="none" stroke="#f0f0f0" stroke-width="1"/>
    <path id="Grid_v_2" d="M149,434V715" fill="none" stroke="#f0f0f0" stroke-width="1"/>
    <path id="Grid_v_3" d="M238,434V715" fill="none" stroke="#f0f0f0" stroke-width="1"/>
    <path id="Grid_v_4" d="M326,434V715" fill="none" stroke="#f0f0f0" stroke-width="1"/>
    <path id="Grid_v_5" d="M415,434V715" fill="none" stroke="#f0f0f0" stroke-width="1"/>
    <path id="Grid_1" d="M61,715H415" fill="none" stroke="#f0f0f0" stroke-width="1"/>
    <path id="Grid_2" d="M61,658H415" fill="none" stroke="#f0f0f0" stroke-width="1"/>
    <path id="Grid_3" d="M61,602H415" fill="none" stroke="#f0f0f0" stroke-width="1"/>
    <path id="Grid_4" d="M61,546H415" fill="none" stroke="#f0f0f0" stroke-width="1"/>
    <path id="Grid_5" d="M61,490H415" fill="none" stroke="#f0f0f0" stroke-width="1"/>
    <path id="Grid_6" d="M61,434H415" fill="none" stroke="#f0f0f0" stroke-width="1"/>
    <path id="Line_2" d="M61,459s44,185,88,185,44,56,89,56c44,0,44-171,88-171s89,8,89,8" fill="none" stroke="#1f78b4" stroke-width="2"/>
    <g id="Dot_21" transform="translate(57 455)" fill="#1f78b4" stroke="rgba(0,0,0,0)" stroke-width="1">
      <circle cx="4" cy="4" r="4" stroke="none"/>
      <circle cx="4" cy="4" r="3.5" fill="none"/>
    </g>
    <g id="Dot_22" transform="translate(145 640)" fill="#1f78b4" stroke="rgba(0,0,0,0)" stroke-width="1">
      <circle cx="4" cy="4" r="4" stroke="none"/>
      <circle cx="4" cy="4" r="3.5" fill="none"/>
    </g>
    <g id="Dot_23" transform="translate(234 696)" fill="#1f78b4" stroke="rgba(0,0,0,0)" stroke-width="1">
      <circle cx="4" cy="4" r="4" stroke="none"/>
      <circle cx="4" cy="4" r="3.5" fill="none"/>
    </g>
    <g id="Dot_24" transform="translate(322 525)" fill="#1f78b4" stroke="rgba(0,0,0,0)" stroke-width="1">
      <circle cx="4" cy="4" r="4" stroke="none"/>
      <circle cx="4" cy="4" r="3.5" fill="none"/>
    </g>
    <g id="Dot_25" transform="translate(411 533)" fill="#1f78b4" stroke="rgba(0,0,0,0)" stroke-width="1">
      <circle cx="4" cy="4" r="4" stroke="none"/>
      <circle cx="4" cy="4" r="3.5" fill="none"/>
    </g>
    <path id="Line_3" d="M61,473s44,126,88,126,44-70,89-70c44,0,44,104,88,104s89,56,89,56" fill="none" stroke="#e380c7" stroke-width="2"/>
    <g id="Dot_31" transform="translate(57 469)" fill="#e380c7" stroke="rgba(0,0,0,0)" stroke-width="1">
      <circle cx="4" cy="4" r="4" stroke="none"/>
      <circle cx="4" cy="4" r="3.5" fill="none"/>
    </g>
    <g id="Dot_32" transform="translate(145 595)" fill="#e380c7" stroke="rgba(0,0,0,0)" stroke-width="1">
      <circle cx="4" cy="4" r="4" stroke="none"/>
      <circle cx="4" cy="4" r="3.5" fill="none"/>
    </g>
    <g id="Dot_33" transform="translate(234 525)" fill="#e380c7" stroke="rgba(0,0,0,0)" stroke-width="1">
      <circle cx="4" cy="4" r="4" stroke="none"/>
      <circle cx="4" cy="4" r="3.5" fill="none"/>
    </g>
    <g id="Dot_34" transform="translate(322 629)" fill="#e380c7" stroke="rgba(0,0,0,0)" stroke-width="1">
      <circle cx="4" cy="4" r="4" stroke="none"/>
      <circle cx="4" cy="4" r="3.5" fill="none"/>
    </g>
    <g id="Dot_35" transform="translate(411 685)" fill="#e380c7" stroke="rgba(0,0,0,0)" stroke-width="1">
      <circle cx="4" cy="4" r="4" stroke="none"/>
      <circle cx="4" cy="4" r="3.5" fill="none"/>
    </g>
    <path id="Line_4" d="M61,700s44-199,88-199,44-39,89-39c44,0,44,174,88,174s89-101,89-101" fill="none" stroke="#9bb73a" stroke-width="2"/>
    <g id="Dot_41" transform="translate(57 696)" fill="#9bb73a" stroke="rgba(0,0,0,0)" stroke-width="1">
      <circle cx="4" cy="4" r="4" stroke="none"/>
      <circle cx="4" cy="4" r="3.5" fill="none"/>
    </g>
    <g id="Dot_42" transform="translate(145 497)" fill="#9bb73a" stroke="rgba(0,0,0,0)" stroke-width="1">
      <circle cx="4" cy="4" r="4" stroke="none"/>
      <circle cx="4" cy="4" r="3.5" fill="none"/>
    </g>
    <g id="Dot_43" transform="translate(234 458)" fill="#9bb73a" stroke="rgba(0,0,0,0)" stroke-width="1">
      <circle cx="4" cy="4" r="4" stroke="none"/>
      <circle cx="4" cy="4" r="3.5" fill="none"/>
    </g>
    <g id="Dot_44" transform="translate(322 632)" fill="#9bb73a" stroke="rgba(0,0,0,0)" stroke-width="1">
      <circle cx="4" cy="4" r="4" stroke="none"/>
      <circle cx="4" cy="4" r="3.5" fill="none"/>
    </g>
    <g id="Dot_45" transform="translate(411 531)" fill="#9bb73a" stroke="rgba(0,0,0,0)" stroke-width="1">
      <circle cx="4" cy="4" r="4" stroke="none"/>
      <circle cx="4" cy="4" r="3.5" fill="none"/>
    </g>
  </g>
</svg>
