<svg xmlns="http://www.w3.org/2000/svg" width="18.725" height="21.4" viewBox="0 0 18.725 21.4">
  <path id="Icon_awesome-database" data-name="Icon awesome-database" d="M18.725,3.057V4.968c0,1.684-4.194,3.057-9.363,3.057S0,6.652,0,4.968V3.057C0,1.373,4.194,0,9.363,0S18.725,1.373,18.725,3.057Zm0,4.3v4.3c0,1.684-4.194,3.057-9.363,3.057S0,13.339,0,11.655v-4.3c2.011,1.385,5.693,2.03,9.363,2.03S16.713,8.742,18.725,7.356Zm0,6.688v4.3c0,1.684-4.194,3.057-9.363,3.057S0,20.027,0,18.343v-4.3c2.011,1.385,5.693,2.03,9.363,2.03S16.713,15.429,18.725,14.044Z" fill="#e4c5a1"/>
</svg>
