<svg xmlns="http://www.w3.org/2000/svg" width="21.6" height="21.6" viewBox="0 0 21.6 21.6">
  <path id="Path_4" data-name="Path 4" d="M20.877,0H.723A.772.772,0,0,0,0,.813v13.35a.772.772,0,0,0,.723.813H20.877a.772.772,0,0,0,.723-.813V.813A.772.772,0,0,0,20.877,0Zm.1,13.463a.772.772,0,0,1-.723.813H1.345a.772.772,0,0,1-.723-.813V1.512A.772.772,0,0,1,1.345.7h18.91a.772.772,0,0,1,.723.813ZM20.255,1.241H1.345a.257.257,0,0,0-.241.271V13.463a.257.257,0,0,0,.241.271h18.91a.257.257,0,0,0,.241-.271V1.512a.257.257,0,0,0-.241-.271ZM2.068,8.043a.257.257,0,0,1-.241.271.257.257,0,0,1-.241-.271V7.474A.257.257,0,0,1,1.827,7.2a.257.257,0,0,1,.241.271Zm0-1.626a.257.257,0,0,1-.241.271.257.257,0,0,1-.241-.271V2.6a.257.257,0,0,1,.241-.271.257.257,0,0,1,.241.271ZM19.253,21.143c0,.016-.063.135-.419.3a1.228,1.228,0,0,1-.822.07,33.226,33.226,0,0,0-7.074-.642,31.976,31.976,0,0,0-7.231.683,1.24,1.24,0,0,1-.788-.043c-.521-.209-.571-.366-.574-.366.077-.358,2.147-1.084,6.787-1.252q.241,0,.482-.016c.848-.022,1.745-.019,2.591,0h.306c4.6.182,6.655.908,6.741,1.266ZM10.3,19.325h-.9L9.771,15.5h2.053l.381,3.821H10.3Z" fill="#e4c5a1"/>
</svg>
