<svg xmlns="http://www.w3.org/2000/svg" width="22.6" height="19.514" viewBox="0 0 22.6 19.514">
  <path id="Icon_ionic-ios-speedometer" data-name="Icon ionic-ios-speedometer" d="M10.8,0A10.8,10.8,0,0,0,2.714,17.955c.053.058.1.116.154.169a1.214,1.214,0,0,0,1.789,0,8.347,8.347,0,0,1,12.285,0,1.214,1.214,0,0,0,1.789,0l.154-.169A10.8,10.8,0,0,0,10.8,0Zm-.675,2.213a.675.675,0,1,1,1.35,0V3.949a.675.675,0,1,1-1.35,0ZM3.954,11.47H2.218a.675.675,0,1,1,0-1.35H3.954a.675.675,0,0,1,0,1.35ZM6.437,6.432h0a.681.681,0,0,1-.955,0L4.253,5.207a.681.681,0,0,1,0-.955h0a.681.681,0,0,1,.955,0L6.437,5.482A.675.675,0,0,1,6.437,6.432ZM14.18,8.1l-2.29,3.64a1.5,1.5,0,0,1-.337.338A1.452,1.452,0,0,1,9.865,9.71L13.5,7.42a.493.493,0,0,1,.564,0A.485.485,0,0,1,14.18,8.1Zm1.938-1.663a.681.681,0,0,1-.955,0h0a.681.681,0,0,1,0-.955l1.229-1.229a.681.681,0,0,1,.955,0h0a.681.681,0,0,1,0,.955Zm3.264,5.038H17.646a.675.675,0,0,1,0-1.35h1.736a.675.675,0,1,1,0,1.35Z" transform="translate(0.5 0.5)" fill="none" stroke="#e4c5a1" stroke-width="1"/>
</svg>
